<svg xmlns="http://www.w3.org/2000/svg" viewBox="0 0 67.37 48.31" preserveAspectRatio="xMinYMin"><title>Drill icon</title><g data-name="Layer 2"><g data-name="Layer 1" fill="#5eddc1"><path d="M67.37 18.25v-4.74A13.52 13.52 0 0 0 53.86 0h-25.5a4.53 4.53 0 0 0-4.52 4.52v.62H22v-.77a1 1 0 0 0-1-1h-6a1 1 0 0 0-1 1v.76h-2.86a1 1 0 0 0-1 1v2.43H1a1 1 0 0 0 0 2h9.14v2.52a1 1 0 0 0 1 1H14v.76a1 1 0 0 0 1 1h6a1 1 0 0 0 1-1v-.76h1.8v4.17a4.53 4.53 0 0 0 4.52 4.52h16.53l3.08 8a1 1 0 0 0 .93.64h2.85l2 5.47a6.4 6.4 0 0 0 6 4.16 6.33 6.33 0 0 0 1.23-.13l2.46 6.78a1 1 0 1 0 1.88-.69l-2.47-6.79a6.37 6.37 0 0 0 2.87-7.77l-3.57-9.64h.73a4.53 4.53 0 0 0 4.53-4.55zm-4.52 2H42.12V17h22.75v1.22a2 2 0 0 1-2.03 2.05zM42.12 6.71h7a4 4 0 0 1 3.93 2.65h-11zm22.75 6.79V15H42.12v-3.64h12.15a1 1 0 0 0 1-1 5.89 5.89 0 0 0-6.1-5.65h-7V2.5h11.69a11 11 0 0 1 11.01 11.01zm-52.73-1.42V7.14H14v4.94zM20 13.84h-4V5.37h4zm2-1.76V7.14h1.8v4.94zm4.3 6.17V4.52a2 2 0 0 1 2-2h11.82v17.75H28.36a2 2 0 0 1-2.02-2.02zm23.25 11.12L47 22.77h1.52l.09.25L51 29.37zm13.79 3.91A3.87 3.87 0 1 1 56.08 36l-4.89-13.2h8.26z"/><path d="M30.25 8.92h7.53a1 1 0 0 0 0-2h-7.53a1 1 0 0 0 0 2zm7.53 4.94h-7.53a1 1 0 0 0 0 2h7.53a1 1 0 0 0 0-2zm0-3.47h-7.53a1 1 0 0 0 0 2h7.53a1 1 0 0 0 0-2zm18.94 18.17a2 2 0 1 0-2-2 2 2 0 0 0 2 2zm0-3a1 1 0 1 1-1 1 1 1 0 0 1 1-.98z"/></g></g></svg>