<svg xmlns="http://www.w3.org/2000/svg" viewBox="0 0 46 46" preserveAspectRatio="xMinYMin"><title>Leaf icon</title><g data-name="Layer 2"><path d="M23 0a23 23 0 1 0 23 23A23 23 0 0 0 23 0zm0 3a20 20 0 0 1 18.46 27.67 5.84 5.84 0 0 1-2 .39 12.07 12.07 0 0 1-3.91-1 12.58 12.58 0 0 0-4.19-1 14.24 14.24 0 0 0-4.41 1 18.14 18.14 0 0 1-3 .84v-9.59l1.27-.14a8.94 8.94 0 0 0 7.87-7.87l.28-2.49-2.49.28a8.92 8.92 0 0 0-7.83 7.61 8.92 8.92 0 0 0-7.83-7.61l-2.42-.29.28 2.49a8.94 8.94 0 0 0 7.87 7.87l1.07.12v9.52a18.29 18.29 0 0 1-1.81-.62 13.51 13.51 0 0 0-5-1.18 9.88 9.88 0 0 0-4.29 1.07A8.71 8.71 0 0 1 7.1 31a8.18 8.18 0 0 1-2.58-.42A20 20 0 0 1 23 3zm2.07 16.17a6.94 6.94 0 0 1 6.11-6.11 6.94 6.94 0 0 1-6.11 6.11zm-3.89 0a6.94 6.94 0 0 1-6.11-6.11 6.94 6.94 0 0 1 6.11 6.11zM5.65 32.91A9.89 9.89 0 0 0 7.1 33a10.63 10.63 0 0 0 4.6-1.1 8 8 0 0 1 3.49-.9 11.72 11.72 0 0 1 4.3 1 10.54 10.54 0 0 0 3.8 1 14.07 14.07 0 0 0 4.34-1 12.94 12.94 0 0 1 3.76-.92 11 11 0 0 1 3.5.9 13.5 13.5 0 0 0 4.6 1.1 6.67 6.67 0 0 0 .81-.06A20 20 0 0 1 39 35a14.45 14.45 0 0 1-3.38-.93 12.58 12.58 0 0 0-4.19-1 14.24 14.24 0 0 0-4.41 1 12.79 12.79 0 0 1-3.69.9 9 9 0 0 1-3.08-.82 13.51 13.51 0 0 0-5-1.18 9.88 9.88 0 0 0-4.29 1.07A8.71 8.71 0 0 1 7.1 35v.05a20 20 0 0 1-1.45-2.14zm25.73 8.15a14.24 14.24 0 0 0-4.41 1 14 14 0 0 1-3.48.89h-.27a9.23 9.23 0 0 1-3-.81 13.51 13.51 0 0 0-5-1.18c-.25 0-.5 0-.75.05a20 20 0 0 1-2.36-1.31 7.35 7.35 0 0 1 3.08-.7 11.72 11.72 0 0 1 4.3 1 10.55 10.55 0 0 0 3.8 1 14.07 14.07 0 0 0 4.34-1 12.94 12.94 0 0 1 3.76-.92 8.41 8.41 0 0 1 2.66.6 20 20 0 0 1-2.53 1.41zm4.56-2.84l-.37-.13a12.56 12.56 0 0 0-4.18-1 14.24 14.24 0 0 0-4.41 1 12.79 12.79 0 0 1-3.69.9 9 9 0 0 1-3.08-.82 13.51 13.51 0 0 0-5-1.18 9.88 9.88 0 0 0-4.29 1.07l-.7.29a20.16 20.16 0 0 1-1.57-1.45 12.38 12.38 0 0 0 3.06-1 8 8 0 0 1 3.49-.9 11.72 11.72 0 0 1 4.3 1 10.54 10.54 0 0 0 3.8 1 14.07 14.07 0 0 0 4.34-1 12.94 12.94 0 0 1 3.76-.92 11 11 0 0 1 3.5.9 23.9 23.9 0 0 0 2.57.82 20.15 20.15 0 0 1-1.53 1.42z" fill="#5eddc1" data-name="Layer 1"/></g></svg>