<svg xmlns="http://www.w3.org/2000/svg" width="69" height="43" viewBox="0 0 69 43" preserveAspectRatio="xMinYMin"><path fill="#5EDDC1" d="M31.882 4.581l-1.098-2.356-4.426-1.61-1.094 3.007-7.18-2.613L3.652.614.207 10.08l11.308 8.975 7.18 2.614-1.094 3.007 4.425 1.611 2.356-1.099c1.97 2.514 9.094 10.943 18.463 14.353 5.543 2.018 10.058 2.764 12.87 3.036a3.821 3.821 0 0 0 3.962-2.49l.916-2.517a3.818 3.818 0 0 0-3.45-5.115c-1.474-.05-6.843-.419-14.021-3.031-6.754-2.459-11.996-11.09-13.628-14.043 3.148-1.215 12.703-4.46 19.466-1.998 7.178 2.613 11.528 5.782 12.69 6.69.316.248.667.442 1.043.58a3.818 3.818 0 0 0 4.887-2.28l.916-2.516A3.82 3.82 0 0 0 67.06 11.4c-2.328-1.599-6.266-3.93-11.81-5.947-9.368-3.41-20.244-1.531-23.369-.873zM4.3 5.075l.832-2.285 12.547.342 2.207.804a9.592 9.592 0 0 0-5.506 4.808l-3.247-1.182A3.196 3.196 0 0 0 9.04 4.529a3.196 3.196 0 0 0-3.553.978L4.3 5.075zm2.643 2.097a1.069 1.069 0 0 1 1.367-.638c.553.201.839.815.638 1.367a1.069 1.069 0 0 1-1.368.638 1.068 1.068 0 0 1-.637-1.367zm35.45 24.256c7.474 2.72 13.124 3.105 14.676 3.158a1.681 1.681 0 0 1 1.52 2.253l-.916 2.517a1.688 1.688 0 0 1-1.753 1.096c-2.688-.26-7.012-.976-12.344-2.917-5.944-2.163-11.037-6.616-14.274-9.984l3.599-3.407c2.531 2.997 5.763 5.927 9.492 7.284zM27.235 15.693a49.433 49.433 0 0 0 4.326 6.78l-3.709 3.513c-1.433-1.611-2.252-2.722-2.277-2.756l-.518-.71-3.131 1.459-1.59-.579.707-1.943 3.462-6.758 2.73.994zm-7.692 4.013l-6.973-2.538-9.832-7.804.831-2.284 1.187.432a3.196 3.196 0 0 0 2.094 3.032 3.196 3.196 0 0 0 3.553-.977l5.197 1.891.365-1.002c1.3-3.572 5.058-5.546 8.672-4.722l-1.662 7.273-3.432 6.699zm8.422-6.018l-2.73-.994 1.692-7.403.707-1.942 1.59.58 1.46 3.13.854-.212c.04-.01 1.381-.336 3.515-.648l.584 5.076a49.433 49.433 0 0 0-7.672 2.413zm37.888-.529c.638.438.9 1.247.637 1.967l-.915 2.517a1.681 1.681 0 0 1-2.61.749c-1.226-.958-5.802-4.295-13.276-7.015-3.728-1.357-8.087-1.19-11.953-.521L37.17 5.93c4.641-.5 11.401-.637 17.352 1.53 5.333 1.94 9.106 4.17 11.332 5.7z"/></svg>