<svg xmlns="http://www.w3.org/2000/svg" width="69" height="43" viewBox="0 0 69 43" preserveAspectRatio="xMinYMin">
  <path fill="#5EDDC1" d="M29.250725,27.8849533 L31.0890053,26.046673 L31.0890053,21.3374941 L27.888314,21.3374941 L27.888314,13.6964764 L23.3231952,0 L13.2508531,0 L8.68461414,13.6964764 L8.68461414,21.3374941 L5.48392282,21.3374941 L5.48392282,26.046673 L7.32220312,27.8849533 C5.63448033,30.5958847 0.149661333,40.1733138 0.149661333,50.1432679 C0.149661333,56.04212 0.992514528,60.5400256 1.69870094,63.2744815 C2.13513848,64.965565 3.65527642,66.1465004 5.39430526,66.1465004 L8.07207809,66.1465004 C10.173834,66.1465004 11.8850814,64.435253 11.8850814,62.3334971 C11.8850814,61.9333547 11.8221251,61.5376931 11.6984528,61.1556982 C11.2418514,59.7527353 9.75151125,54.5815777 9.75151125,46.9428006 C9.75151125,39.7552478 16.0695496,31.8774158 18.2864641,29.3340693 C20.5044988,31.8765197 26.8214169,39.745614 26.8214169,46.9428006 C26.8214169,54.5815777 25.3310768,59.7527353 24.8744753,61.1556982 C24.750803,61.5376931 24.6878467,61.9333547 24.6878467,62.3334971 C24.6878467,64.435253 26.3990941,66.1465004 28.50085,66.1465004 L31.1786229,66.1465004 C32.9176517,66.1465004 34.4380137,64.965565 34.8742272,63.2744815 C35.5804136,60.5400256 36.4232668,56.04212 36.4232668,50.1432679 C36.4230428,40.1733138 30.9384478,30.5958847 29.250725,27.8849533 Z M19.3531371,2.13379421 L21.7844617,2.13379421 L25.7542957,14.0421762 L25.7542957,16.3903804 C24.2030157,14.4678596 21.9338989,13.148241 19.3531371,12.8612407 L19.3531371,9.40558745 C20.5918759,8.9639969 21.4869313,7.79023085 21.4869313,6.4011586 C21.4869313,5.01208635 20.5918759,3.83854434 19.3531371,3.39672974 L19.3531371,2.13379421 Z M18.2864641,5.33448553 C18.8743553,5.33448553 19.3533612,5.81349142 19.3533612,6.40138264 C19.3533612,6.98927387 18.8743553,7.46827975 18.2864641,7.46827975 C17.6985728,7.46827975 17.219567,6.98927387 17.219567,6.40138264 C17.2193429,5.81349142 17.6983488,5.33448553 18.2864641,5.33448553 Z M7.61771704,46.9425765 C7.61771704,54.8961354 9.18826486,60.3372658 9.66928714,61.8137152 C9.72485003,61.9855569 9.75151125,62.1551581 9.75151125,62.333273 C9.75151125,63.2592465 8.99827562,64.0124822 8.07230213,64.0124822 L5.39408122,64.0124822 C4.62807508,64.0124822 3.95706357,63.4897877 3.76393771,62.7408089 C3.08866937,60.1259924 2.28300746,55.817852 2.28300746,50.1430438 C2.28300746,43.8176121 4.72620631,37.5092076 6.78315347,33.3151056 L11.2160863,35.5320201 C9.26578405,38.9356952 7.61771704,42.9747589 7.61771704,46.9425765 Z M17.219791,27.3185703 C16.4484078,28.1591831 14.3605426,30.5405458 12.3282403,33.7027016 L7.7588647,31.4185739 C8.78207325,29.5206979 9.54583894,28.3715767 9.56936355,28.3364018 L10.0600197,27.6066908 L7.61771704,25.1632679 L7.61771704,23.4712883 L9.6854183,23.4712883 L17.219791,24.4133929 L17.219791,27.3185703 Z M10.8184084,21.4627346 L10.8184084,14.0421762 L14.7882424,2.13379421 L17.219567,2.13379421 L17.219567,3.39695379 C15.9808282,3.83854434 15.0857727,5.01231039 15.0857727,6.40138264 C15.0857727,7.79045489 15.9808282,8.9639969 17.219567,9.4058115 L17.219567,14.9365595 L18.2864641,14.9365595 C22.0878171,14.9365595 25.2275685,17.7926713 25.689547,21.4712483 L18.2864641,22.3963256 L10.8184084,21.4627346 Z M19.3533612,27.3183463 C19.3533612,27.3183463 19.3533612,24.4133929 19.3533612,24.4133929 L26.88863,23.4712883 L28.9552111,23.4712883 L28.9552111,25.1632679 L26.5120122,27.6064667 L27.0037886,28.3361778 C27.0273132,28.3713527 27.7921991,29.5193537 28.8154077,31.4172296 L24.2449119,33.7024775 C22.2126096,30.5403218 20.1247444,28.158959 19.3533612,27.3183463 Z M32.8085423,62.7408089 C32.6154165,63.4897877 31.944405,64.0124822 31.1783988,64.0124822 L28.500626,64.0124822 C27.5746525,64.0124822 26.8214169,63.2592465 26.8214169,62.333273 C26.8214169,62.1551581 26.8480781,61.9855569 26.903641,61.8157316 C27.3848873,60.3370418 28.9552111,54.8959113 28.9552111,46.9423525 C28.9552111,42.9745348 27.30692,38.9354712 25.3566178,35.5320201 L29.791567,33.3139854 C31.8485142,37.5047268 34.2894726,43.8099946 34.2894726,50.1428198 C34.2896966,55.817852 33.4840347,60.1259924 32.8085423,62.7408089 Z" transform="rotate(-70 13.926 14.354)"/>
</svg>
