<svg xmlns="http://www.w3.org/2000/svg" viewBox="0 0 48.99 48.37" preserveAspectRatio="xMinYMin"><title>Tag icon</title><g data-name="Layer 2"><g data-name="Layer 1" fill="#5eddc1"><path d="M26.09 29.39a3.42 3.42 0 0 0 0-1 5.91 5.91 0 0 0-.26-1 9.19 9.19 0 0 0-.42-1q-.24-.5-.5-1l3-2.47a5.18 5.18 0 0 1 .29.61l.22.57c.07.18.14.33.2.47a1.2 1.2 0 0 0 .22.33.8.8 0 0 0 .41.23 1.42 1.42 0 0 0 .55 0l1.44-.27a7.44 7.44 0 0 0-.24-1.78 6.43 6.43 0 0 0-1-1.93l1.67-1.36-.88-.88a.82.82 0 0 0-.62-.26.93.93 0 0 0-.59.2l-1 .78a5.65 5.65 0 0 0-1.89-1.29 5.36 5.36 0 0 0-1.93-.41 4.55 4.55 0 0 0-1.76.32 4.27 4.27 0 0 0-1.44.94 4.35 4.35 0 0 0-1.1 1.65 3.8 3.8 0 0 0-.19 1.62 5.06 5.06 0 0 0 .5 1.54q.34.76.74 1.47l-3.2 2.63a4.13 4.13 0 0 1-.38-.85q-.13-.41-.22-.78t-.18-.65a1.19 1.19 0 0 0-.28-.47 1 1 0 0 0-.42-.25 1.05 1.05 0 0 0-.47 0l-1.81.33a7.11 7.11 0 0 0 .45 2.22 9.5 9.5 0 0 0 1.18 2.2l-1.74 1.43.88.88a.83.83 0 0 0 .61.27.91.91 0 0 0 .58-.2l1.06-.87a6.7 6.7 0 0 0 2 1.21 5.31 5.31 0 0 0 2 .37 4.71 4.71 0 0 0 1.86-.41A5.39 5.39 0 0 0 25 31.4a4 4 0 0 0 .74-1 3.23 3.23 0 0 0 .35-1.01zM24 23.49a3.33 3.33 0 0 1-.29-1.23 1.39 1.39 0 0 1 .45-1 1.5 1.5 0 0 1 .45-.31 1.29 1.29 0 0 1 .55-.11 1.81 1.81 0 0 1 .64.14 3.53 3.53 0 0 1 .76.44zm-4.23 6.13l2.79-2.3a3.21 3.21 0 0 1 .3 1.18 1.29 1.29 0 0 1-.42 1 1.88 1.88 0 0 1-2.72.12z"/><path d="M46.18 22.14l2.76-17A4.43 4.43 0 0 0 44 0L26.38 2.19a4.45 4.45 0 0 0-2.6 1.26L1.3 25.94a4.43 4.43 0 0 0 0 6.26l14.86 14.87a4.43 4.43 0 0 0 6.26 0l22.52-22.51a4.4 4.4 0 0 0 1.24-2.42zM20.31 44.95a1.43 1.43 0 0 1-2 0L3.42 30.08a1.43 1.43 0 0 1 0-2L25.9 5.57a1.43 1.43 0 0 1 .84-.41L44.39 3A1.43 1.43 0 0 1 46 4.66l-2.76 17a1.43 1.43 0 0 1-.4.78z"/><path d="M35.07 13.29a3.5 3.5 0 1 0 0-5 3.5 3.5 0 0 0 0 5zm3.54-3.54a1.5 1.5 0 1 1-2.13 0 1.5 1.5 0 0 1 2.14 0z"/></g></g></svg>