<svg xmlns="http://www.w3.org/2000/svg" width="48" viewBox="0 -30 511.999 511"><path d="M458.719 284.648l.117-.125c3.25-3.3 4.223-4.945 8.848-11.562 59.336-60.156 59.086-157.363-.754-217.203-19-18.969-18.192-18.266-19.188-19.09C392.77-8.73 315.754-10.008 256.574 25.094 189.312-14.88 102.394-2.203 49.277 57.062L37.168 70.57c-51.578 57.551-49.195 145.422 5.41 200.094l55.32 56.563c8.149 8.144 18.664 12.5 29.348 13.086.586 10.687 4.945 21.199 13.086 29.343 8.148 8.145 18.664 12.504 29.348 13.086.586 10.688 4.941 21.203 13.086 29.348 12.879 12.879 31.28 16.113 46.84 10.625a44.747 44.747 0 0010.597 16.805c17.547 17.546 46.102 17.55 63.649 0l27.433-27.43c8.137-8.14 12.496-18.645 13.082-29.324 11.094-.594 21.438-5.196 29.352-13.11s12.511-18.258 13.11-29.347c10.675-.59 21.183-4.946 29.323-13.086 8.145-8.145 12.508-18.657 13.09-29.34 10.684-.586 21.2-4.95 29.34-13.094.047-.043.09-.094.137-.14zM428.105 59.363l17.61 17.61c41.004 41.004 47.258 103.793 18.777 151.453-4.582-7.016-1.273-2.172-87.847-89.223 15.093-2.433 29.02-9.508 40.02-20.508 5.858-5.855 5.858-15.355 0-21.215-5.86-5.859-15.36-5.859-21.22 0-16.535 16.536-43.695 16.797-60.547.586l-4.285-4.12a15.002 15.002 0 00-18.722-1.673l-76.907 51.274c-18.793 12.523-42.843 12.777-61.675 1.793 64.757-65.817 69.296-74.207 88.222-87.7.102-.03 87.77-62.628 166.574 1.723zm-308.992 225.43l42.438-42.438c5.847-5.847 15.367-5.847 21.215 0 5.851 5.852 5.851 15.368.004 21.215 0 0 0 .004-.004.004l-42.434 42.434a64.74 64.74 0 01-.012.012c-5.836 5.824-15.312 5.835-21.164.027l-.11-.113c-5.776-5.856-5.757-15.317.067-21.141zm42.434 42.434l42.437-42.438c5.852-5.848 15.368-5.848 21.215 0 5.863 5.867 5.863 15.356 0 21.219l-42.433 42.433c-5.848 5.848-15.368 5.848-21.215 0-5.852-5.847-5.852-15.363-.004-21.214zm42.437 63.648c-5.847-5.852-5.851-15.367 0-21.219l42.434-42.433c5.848-5.848 15.367-5.848 21.215 0 5.863 5.863 5.867 15.351 0 21.218-5.063 5.067-37.488 37.493-42.434 42.434-5.863 5.863-15.351 5.863-21.215 0zm106.082 0l-27.43 27.43c-5.85 5.847-15.366 5.847-21.218 0-5.848-5.852-5.848-15.368 0-21.22l27.434-27.429c5.847-5.847 15.363-5.851 21.214 0 5.852 5.852 5.852 15.367 0 21.219zm106.082-127.3l-84.867-84.868c-5.855-5.86-15.355-5.86-21.215 0a14.957 14.957 0 00-4.394 10.61c0 3.835 1.465 7.675 4.394 10.605l84.868 84.867c5.851 5.852 5.847 15.367 0 21.215-5.848 5.851-15.368 5.851-21.22 0l-84.866-84.863c-5.856-5.86-15.356-5.86-21.215 0-5.86 5.855-5.86 15.355 0 21.214l84.867 84.868c5.863 5.863 5.863 15.351 0 21.218-5.852 5.848-15.367 5.848-21.219 0-8.136-8.14-18.644-12.496-29.32-13.086-.598-11.09-5.2-21.433-13.113-29.347-8.137-8.14-18.645-12.496-29.32-13.086-.598-11.09-5.2-21.434-13.114-29.348-8.144-8.144-18.66-12.504-29.344-13.086-.586-10.687-4.945-21.203-13.09-29.347-17.546-17.547-46.101-17.547-63.648 0l-42.434 42.433a44.844 44.844 0 00-8.496 11.848c-31.496-31.945-24.34-24.688-25.433-25.797l-.117-.117c-43.399-43.403-45.309-113.203-4.344-158.91l12.11-13.512c40.284-44.945 105.007-57.188 158.015-32.36a181.7 181.7 0 00-7.86 7.383c-.054.059-81.613 84.34-81.613 84.34-5.695 5.883-5.62 15.25.172 21.04 29.727 29.73 76.547 34.187 111.293 11.023l67.094-44.73c.73.597 116.742 116.663 118.644 118.573 10.528 10.532-.515 21.555-.57 21.735-5.879 5.308-14.977 5.148-20.645-.516zm0 0" data-original="#000000" class="active-path" data-old_color="#000000" fill="#5EDDC1"/></svg>
