<svg xmlns="http://www.w3.org/2000/svg" viewBox="0 0 67.37 48.31" preserveAspectRatio="xMinYMin"><title>Drill icon</title><g id="923bf8fd-acdb-4121-87a0-6836f4d081e5" data-name="Layer 2"><g id="d0bcfbef-301c-40a6-9220-f28033594ec8" data-name="Layer 1"><path d="M67.37,18.25V13.51A13.52,13.52,0,0,0,53.86,0H28.36a4.53,4.53,0,0,0-4.52,4.52v.62H22V4.37a1,1,0,0,0-1-1H15a1,1,0,0,0-1,1v.76H11.14a1,1,0,0,0-1,1V8.56H1a1,1,0,0,0,0,2h9.14v2.52a1,1,0,0,0,1,1H14v.76a1,1,0,0,0,1,1H21a1,1,0,0,0,1-1v-.76h1.8v4.17a4.53,4.53,0,0,0,4.52,4.52H44.85l3.08,8a1,1,0,0,0,.93.64h2.85l2,5.47a6.4,6.4,0,0,0,6,4.16,6.33,6.33,0,0,0,1.23-.13l2.46,6.78A1,1,0,1,0,65.28,47l-2.47-6.79a6.37,6.37,0,0,0,2.87-7.77l-3.57-9.64h.73A4.53,4.53,0,0,0,67.37,18.25Zm-4.52,2H42.12V17H64.87v1.22A2,2,0,0,1,62.84,20.27ZM42.12,6.71h7a4,4,0,0,1,3.93,2.65h-11Zm22.75,6.79V15H42.12V11.36H54.27a1,1,0,0,0,1-1,5.89,5.89,0,0,0-6.1-5.65h-7V2.5H53.86A11,11,0,0,1,64.87,13.51ZM12.14,12.08V7.14H14v4.94ZM20,13.84H16V5.37H20Zm2-1.76V7.14h1.8v4.94Zm4.3,6.17V4.52a2,2,0,0,1,2-2H40.12V20.27H28.36A2,2,0,0,1,26.34,18.25ZM49.55,29.37,47,22.77h1.52l.09.25L51,29.37Zm13.79,3.91A3.87,3.87,0,1,1,56.08,36l-4.89-13.2h8.26Z" fill="#5eddc1"/><path d="M30.25,8.92h7.53a1,1,0,0,0,0-2H30.25a1,1,0,0,0,0,2Z" fill="#5eddc1"/><path d="M37.78,13.86H30.25a1,1,0,0,0,0,2h7.53a1,1,0,0,0,0-2Z" fill="#5eddc1"/><path d="M37.78,10.39H30.25a1,1,0,0,0,0,2h7.53a1,1,0,0,0,0-2Z" fill="#5eddc1"/><path d="M56.72,28.56a2,2,0,1,0-2-2A2,2,0,0,0,56.72,28.56Zm0-3a1,1,0,1,1-1,1A1,1,0,0,1,56.72,25.58Z" fill="#5eddc1"/></g></g></svg>
