<svg xmlns="http://www.w3.org/2000/svg" viewBox="0 0 46 46" preserveAspectRatio="xMinYMin"><title>Leaf icon</title><g id="847661e9-bb43-454a-bf34-9b328431300f" data-name="Layer 2"><g id="f112d696-f678-441b-8b63-760cdb86243b" data-name="Layer 1"><path d="M23,0A23,23,0,1,0,46,23,23,23,0,0,0,23,0Zm0,3A20,20,0,0,1,41.46,30.67a5.84,5.84,0,0,1-2,.39,12.07,12.07,0,0,1-3.91-1,12.58,12.58,0,0,0-4.19-1,14.24,14.24,0,0,0-4.41,1,18.14,18.14,0,0,1-3,.84V21.31l1.27-.14a8.94,8.94,0,0,0,7.87-7.87l.28-2.49-2.49.28a8.92,8.92,0,0,0-7.83,7.61,8.92,8.92,0,0,0-7.83-7.61L12.8,10.8l.28,2.49a8.94,8.94,0,0,0,7.87,7.87l1.07.12V30.8a18.29,18.29,0,0,1-1.81-.62,13.51,13.51,0,0,0-5-1.18,9.88,9.88,0,0,0-4.29,1.07A8.71,8.71,0,0,1,7.1,31a8.18,8.18,0,0,1-2.58-.42A20,20,0,0,1,23,3Zm2.07,16.17a6.94,6.94,0,0,1,6.11-6.11,6.94,6.94,0,0,1-6.11,6.11Zm-3.89,0a6.94,6.94,0,0,1-6.11-6.11,6.94,6.94,0,0,1,6.11,6.11ZM5.65,32.91A9.89,9.89,0,0,0,7.1,33,10.63,10.63,0,0,0,11.7,31.9a8,8,0,0,1,3.49-.9,11.72,11.72,0,0,1,4.3,1,10.54,10.54,0,0,0,3.8,1,14.07,14.07,0,0,0,4.34-1,12.94,12.94,0,0,1,3.76-.92,11,11,0,0,1,3.5.9,13.5,13.5,0,0,0,4.6,1.1,6.67,6.67,0,0,0,.81-.06A20,20,0,0,1,39,35a14.45,14.45,0,0,1-3.38-.93,12.58,12.58,0,0,0-4.19-1,14.24,14.24,0,0,0-4.41,1,12.79,12.79,0,0,1-3.69.9,9,9,0,0,1-3.08-.82,13.51,13.51,0,0,0-5-1.18,9.88,9.88,0,0,0-4.29,1.07A8.71,8.71,0,0,1,7.1,35v.05A20,20,0,0,1,5.65,32.91Zm25.73,8.15a14.24,14.24,0,0,0-4.41,1,14,14,0,0,1-3.48.89h-.27a9.23,9.23,0,0,1-3-.81,13.51,13.51,0,0,0-5-1.18c-.25,0-.5,0-.75.05a20,20,0,0,1-2.36-1.31A7.35,7.35,0,0,1,15.19,39a11.72,11.72,0,0,1,4.3,1,10.55,10.55,0,0,0,3.8,1,14.07,14.07,0,0,0,4.34-1,12.94,12.94,0,0,1,3.76-.92,8.41,8.41,0,0,1,2.66.6,20,20,0,0,1-2.53,1.41Zm4.56-2.84-.37-.13a12.56,12.56,0,0,0-4.18-1,14.24,14.24,0,0,0-4.41,1,12.79,12.79,0,0,1-3.69.9,9,9,0,0,1-3.08-.82,13.51,13.51,0,0,0-5-1.18,9.88,9.88,0,0,0-4.29,1.07l-.7.29A20.16,20.16,0,0,1,8.65,36.9a12.38,12.38,0,0,0,3.06-1,8,8,0,0,1,3.49-.9,11.72,11.72,0,0,1,4.3,1,10.54,10.54,0,0,0,3.8,1,14.07,14.07,0,0,0,4.34-1,12.94,12.94,0,0,1,3.76-.92,11,11,0,0,1,3.5.9,23.9,23.9,0,0,0,2.57.82A20.15,20.15,0,0,1,35.94,38.22Z" fill="#5eddc1"/></g></g></svg>
